# Small boat hull with deck, length 2 along x (bow at +x), keel near y = 0
# Generated procedurally for CSCI 4471 Assignment 1. 561 vertices, 926 triangles.
# Vertices shared between triangles are smooth; separate vertices give a sharp edge.
v -1.000000 0.360000 -0.000000
v -1.000000 0.360000 -0.000000
v -1.000000 0.360000 -0.000000
v -1.000000 0.360000 -0.000000
v -1.000000 0.360000 -0.000000
v -1.000000 0.360000 -0.000000
v -1.000000 0.360000 0.000000
v -1.000000 0.360000 0.000000
v -1.000000 0.360000 0.000000
v -1.000000 0.360000 0.000000
v -1.000000 0.360000 0.000000
v -1.000000 0.360000 0.000000
v -0.948718 0.354004 -0.083031
v -0.948718 0.321101 -0.079667
v -0.948718 0.290864 -0.069850
v -0.948718 0.265742 -0.054373
v -0.948718 0.247770 -0.034492
v -0.948718 0.238405 -0.011816
v -0.948718 0.238405 0.011816
v -0.948718 0.247770 0.034492
v -0.948718 0.265742 0.054373
v -0.948718 0.290864 0.069850
v -0.948718 0.321101 0.079667
v -0.948718 0.354004 0.083031
v -0.897436 0.348323 -0.124468
v -0.897436 0.304964 -0.119426
v -0.897436 0.265118 -0.104709
v -0.897436 0.232012 -0.081509
v -0.897436 0.208329 -0.051706
v -0.897436 0.195988 -0.017714
v -0.897436 0.195988 0.017714
v -0.897436 0.208329 0.051706
v -0.897436 0.232012 0.081509
v -0.897436 0.265118 0.104709
v -0.897436 0.304964 0.119426
v -0.897436 0.348323 0.124468
v -0.846154 0.342959 -0.156788
v -0.846154 0.292075 -0.150437
v -0.846154 0.245314 -0.131899
v -0.846154 0.206464 -0.102674
v -0.846154 0.178671 -0.065132
v -0.846154 0.164188 -0.022313
v -0.846154 0.164188 0.022313
v -0.846154 0.178671 0.065132
v -0.846154 0.206464 0.102674
v -0.846154 0.245314 0.131899
v -0.846154 0.292075 0.150437
v -0.846154 0.342959 0.156788
v -0.794872 0.337909 -0.183768
v -0.794872 0.280994 -0.176324
v -0.794872 0.228690 -0.154595
v -0.794872 0.185234 -0.120342
v -0.794872 0.154147 -0.076340
v -0.794872 0.137947 -0.026153
v -0.794872 0.137947 0.026153
v -0.794872 0.154147 0.076340
v -0.794872 0.185234 0.120342
v -0.794872 0.228690 0.154595
v -0.794872 0.280994 0.176324
v -0.794872 0.337909 0.183768
v -0.743590 0.333176 -0.206916
v -0.743590 0.271191 -0.198535
v -0.743590 0.214227 -0.174069
v -0.743590 0.166900 -0.135501
v -0.743590 0.133044 -0.085956
v -0.743590 0.115401 -0.029447
v -0.743590 0.115401 0.029447
v -0.743590 0.133044 0.085956
v -0.743590 0.166900 0.135501
v -0.743590 0.214227 0.174069
v -0.743590 0.271191 0.198535
v -0.743590 0.333176 0.206916
v -0.692308 0.328757 -0.227019
v -0.692308 0.262404 -0.217823
v -0.692308 0.201426 -0.190980
v -0.692308 0.150763 -0.148666
v -0.692308 0.114521 -0.094307
v -0.692308 0.095635 -0.032308
v -0.692308 0.095635 0.032308
v -0.692308 0.114521 0.094307
v -0.692308 0.150763 0.148666
v -0.692308 0.201426 0.190980
v -0.692308 0.262404 0.217823
v -0.692308 0.328757 0.227019
v -0.641026 0.324655 -0.244545
v -0.641026 0.254484 -0.234639
v -0.641026 0.189998 -0.205724
v -0.641026 0.136422 -0.160143
v -0.641026 0.098095 -0.101588
v -0.641026 0.078122 -0.034802
v -0.641026 0.078122 0.034802
v -0.641026 0.098095 0.101588
v -0.641026 0.136422 0.160143
v -0.641026 0.189998 0.205724
v -0.641026 0.254484 0.234639
v -0.641026 0.324655 0.244545
v -0.589744 0.320868 -0.259801
v -0.589744 0.247338 -0.249277
v -0.589744 0.179766 -0.218558
v -0.589744 0.123624 -0.170133
v -0.589744 0.083462 -0.107925
v -0.589744 0.062534 -0.036974
v -0.589744 0.062534 0.036974
v -0.589744 0.083462 0.107925
v -0.589744 0.123624 0.170133
v -0.589744 0.179766 0.218558
v -0.589744 0.247338 0.249277
v -0.589744 0.320868 0.259801
v -0.538462 0.317396 -0.273001
v -0.538462 0.240903 -0.261943
v -0.538462 0.170606 -0.229663
v -0.538462 0.112202 -0.178778
v -0.538462 0.070421 -0.113409
v -0.538462 0.048649 -0.038852
v -0.538462 0.048649 0.038852
v -0.538462 0.070421 0.113409
v -0.538462 0.112202 0.178778
v -0.538462 0.170606 0.229663
v -0.538462 0.240903 0.261943
v -0.538462 0.317396 0.273001
v -0.487179 0.314241 -0.284303
v -0.487179 0.235135 -0.272787
v -0.487179 0.162437 -0.239171
v -0.487179 0.102038 -0.186179
v -0.487179 0.058830 -0.118104
v -0.487179 0.036314 -0.040461
v -0.487179 0.036314 0.040461
v -0.487179 0.058830 0.118104
v -0.487179 0.102038 0.186179
v -0.487179 0.162437 0.239171
v -0.487179 0.235135 0.272787
v -0.487179 0.314241 0.284303
v -0.435897 0.311400 -0.293828
v -0.435897 0.230001 -0.281925
v -0.435897 0.155197 -0.247183
v -0.435897 0.093047 -0.192416
v -0.435897 0.048587 -0.122060
v -0.435897 0.025418 -0.041816
v -0.435897 0.025418 0.041816
v -0.435897 0.048587 0.122060
v -0.435897 0.093047 0.192416
v -0.435897 0.155197 0.247183
v -0.435897 0.230001 0.281925
v -0.435897 0.311400 0.293828
v -0.384615 0.308876 -0.301671
v -0.384615 0.225480 -0.289451
v -0.384615 0.148841 -0.253781
v -0.384615 0.085166 -0.197552
v -0.384615 0.039615 -0.125319
v -0.384615 0.015879 -0.042932
v -0.384615 0.015879 0.042932
v -0.384615 0.039615 0.125319
v -0.384615 0.085166 0.197552
v -0.384615 0.148841 0.253781
v -0.384615 0.225480 0.289451
v -0.384615 0.308876 0.301671
v -0.333333 0.306667 -0.307912
v -0.333333 0.221553 -0.295439
v -0.333333 0.143335 -0.259032
v -0.333333 0.078349 -0.201639
v -0.333333 0.031860 -0.127911
v -0.333333 0.007634 -0.043820
v -0.333333 0.007634 0.043820
v -0.333333 0.031860 0.127911
v -0.333333 0.078349 0.201639
v -0.333333 0.143335 0.259032
v -0.333333 0.221553 0.295439
v -0.333333 0.306667 0.307912
v -0.282051 0.304773 -0.312619
v -0.282051 0.218207 -0.299956
v -0.282051 0.138654 -0.262992
v -0.282051 0.072559 -0.204722
v -0.282051 0.025276 -0.129867
v -0.282051 0.000637 -0.044490
v -0.282051 0.000637 0.044490
v -0.282051 0.025276 0.129867
v -0.282051 0.072559 0.204722
v -0.282051 0.138654 0.262992
v -0.282051 0.218207 0.299956
v -0.282051 0.304773 0.312619
v -0.230769 0.303195 -0.315852
v -0.230769 0.215432 -0.303058
v -0.230769 0.134778 -0.265712
v -0.230769 0.067769 -0.206839
v -0.230769 0.019832 -0.131210
v -0.230769 -0.005148 -0.044950
v -0.230769 -0.005148 0.044950
v -0.230769 0.019832 0.131210
v -0.230769 0.067769 0.206839
v -0.230769 0.134778 0.265712
v -0.230769 0.215432 0.303058
v -0.230769 0.303195 0.315852
v -0.179487 0.301933 -0.317665
v -0.179487 0.213220 -0.304797
v -0.179487 0.131693 -0.267236
v -0.179487 0.063959 -0.208026
v -0.179487 0.015503 -0.131963
v -0.179487 -0.009747 -0.045208
v -0.179487 -0.009747 0.045208
v -0.179487 0.015503 0.131963
v -0.179487 0.063959 0.208026
v -0.179487 0.131693 0.267236
v -0.179487 0.213220 0.304797
v -0.179487 0.301933 0.317665
v -0.128205 0.300986 -0.318105
v -0.128205 0.211565 -0.305219
v -0.128205 0.129388 -0.267607
v -0.128205 0.061113 -0.208314
v -0.128205 0.012271 -0.132146
v -0.128205 -0.013181 -0.045271
v -0.128205 -0.013181 0.045271
v -0.128205 0.012271 0.132146
v -0.128205 0.061113 0.208314
v -0.128205 0.129388 0.267607
v -0.128205 0.211565 0.305219
v -0.128205 0.300986 0.318105
v -0.076923 0.300355 -0.317220
v -0.076923 0.210464 -0.304370
v -0.076923 0.127856 -0.266862
v -0.076923 0.059222 -0.207735
v -0.076923 0.010124 -0.131778
v -0.076923 -0.015462 -0.045145
v -0.076923 -0.015462 0.045145
v -0.076923 0.010124 0.131778
v -0.076923 0.059222 0.207735
v -0.076923 0.127856 0.266862
v -0.076923 0.210464 0.304370
v -0.076923 0.300355 0.317220
v -0.025641 0.300039 -0.315052
v -0.025641 0.209914 -0.302290
v -0.025641 0.127091 -0.265038
v -0.025641 0.058278 -0.206315
v -0.025641 0.009052 -0.130877
v -0.025641 -0.016601 -0.044837
v -0.025641 -0.016601 0.044837
v -0.025641 0.009052 0.130877
v -0.025641 0.058278 0.206315
v -0.025641 0.127091 0.265038
v -0.025641 0.209914 0.302290
v -0.025641 0.300039 0.315052
v 0.025641 0.300039 -0.311643
v 0.025641 0.209914 -0.299019
v 0.025641 0.127091 -0.262171
v 0.025641 0.058278 -0.204083
v 0.025641 0.009052 -0.129461
v 0.025641 -0.016601 -0.044351
v 0.025641 -0.016601 0.044351
v 0.025641 0.009052 0.129461
v 0.025641 0.058278 0.204083
v 0.025641 0.127091 0.262171
v 0.025641 0.209914 0.299019
v 0.025641 0.300039 0.311643
v 0.076923 0.300355 -0.307034
v 0.076923 0.210464 -0.294597
v 0.076923 0.127856 -0.258293
v 0.076923 0.059222 -0.201064
v 0.076923 0.010124 -0.127546
v 0.076923 -0.015462 -0.043695
v 0.076923 -0.015462 0.043695
v 0.076923 0.010124 0.127546
v 0.076923 0.059222 0.201064
v 0.076923 0.127856 0.258293
v 0.076923 0.210464 0.294597
v 0.076923 0.300355 0.307034
v 0.128205 0.300986 -0.301261
v 0.128205 0.211565 -0.289058
v 0.128205 0.129388 -0.253437
v 0.128205 0.061113 -0.197284
v 0.128205 0.012271 -0.125148
v 0.128205 -0.013181 -0.042874
v 0.128205 -0.013181 0.042874
v 0.128205 0.012271 0.125148
v 0.128205 0.061113 0.197284
v 0.128205 0.129388 0.253437
v 0.128205 0.211565 0.289058
v 0.128205 0.300986 0.301261
v 0.179487 0.301933 -0.294363
v 0.179487 0.213220 -0.282439
v 0.179487 0.131693 -0.247634
v 0.179487 0.063959 -0.192767
v 0.179487 0.015503 -0.122283
v 0.179487 -0.009747 -0.041892
v 0.179487 -0.009747 0.041892
v 0.179487 0.015503 0.122283
v 0.179487 0.063959 0.192767
v 0.179487 0.131693 0.247634
v 0.179487 0.213220 0.282439
v 0.179487 0.301933 0.294363
v 0.230769 0.303195 -0.286373
v 0.230769 0.215432 -0.274773
v 0.230769 0.134778 -0.240912
v 0.230769 0.067769 -0.187534
v 0.230769 0.019832 -0.118964
v 0.230769 -0.005148 -0.040755
v 0.230769 -0.005148 0.040755
v 0.230769 0.019832 0.118964
v 0.230769 0.067769 0.187534
v 0.230769 0.134778 0.240912
v 0.230769 0.215432 0.274773
v 0.230769 0.303195 0.286373
v 0.282051 0.304773 -0.277324
v 0.282051 0.218207 -0.266090
v 0.282051 0.138654 -0.233300
v 0.282051 0.072559 -0.181608
v 0.282051 0.025276 -0.115204
v 0.282051 0.000637 -0.039467
v 0.282051 0.000637 0.039467
v 0.282051 0.025276 0.115204
v 0.282051 0.072559 0.181608
v 0.282051 0.138654 0.233300
v 0.282051 0.218207 0.266090
v 0.282051 0.304773 0.277324
v 0.333333 0.306667 -0.267244
v 0.333333 0.221553 -0.256419
v 0.333333 0.143335 -0.224820
v 0.333333 0.078349 -0.175008
v 0.333333 0.031860 -0.111017
v 0.333333 0.007634 -0.038033
v 0.333333 0.007634 0.038033
v 0.333333 0.031860 0.111017
v 0.333333 0.078349 0.175008
v 0.333333 0.143335 0.224820
v 0.333333 0.221553 0.256419
v 0.333333 0.306667 0.267244
v 0.384615 0.308876 -0.256160
v 0.384615 0.225480 -0.245784
v 0.384615 0.148841 -0.215495
v 0.384615 0.085166 -0.167749
v 0.384615 0.039615 -0.106413
v 0.384615 0.015879 -0.036455
v 0.384615 0.015879 0.036455
v 0.384615 0.039615 0.106413
v 0.384615 0.085166 0.167749
v 0.384615 0.148841 0.215495
v 0.384615 0.225480 0.245784
v 0.384615 0.308876 0.256160
v 0.435897 0.311400 -0.244090
v 0.435897 0.230001 -0.234203
v 0.435897 0.155197 -0.205342
v 0.435897 0.093047 -0.159845
v 0.435897 0.048587 -0.101399
v 0.435897 0.025418 -0.034738
v 0.435897 0.025418 0.034738
v 0.435897 0.048587 0.101399
v 0.435897 0.093047 0.159845
v 0.435897 0.155197 0.205342
v 0.435897 0.230001 0.234203
v 0.435897 0.311400 0.244090
v 0.487179 0.314241 -0.231046
v 0.487179 0.235135 -0.221687
v 0.487179 0.162437 -0.194369
v 0.487179 0.102038 -0.151303
v 0.487179 0.058830 -0.095980
v 0.487179 0.036314 -0.032881
v 0.487179 0.036314 0.032881
v 0.487179 0.058830 0.095980
v 0.487179 0.102038 0.151303
v 0.487179 0.162437 0.194369
v 0.487179 0.235135 0.221687
v 0.487179 0.314241 0.231046
v 0.538462 0.317396 -0.217030
v 0.538462 0.240903 -0.208239
v 0.538462 0.170606 -0.182577
v 0.538462 0.112202 -0.142125
v 0.538462 0.070421 -0.090158
v 0.538462 0.048649 -0.030887
v 0.538462 0.048649 0.030887
v 0.538462 0.070421 0.090158
v 0.538462 0.112202 0.142125
v 0.538462 0.170606 0.182577
v 0.538462 0.240903 0.208239
v 0.538462 0.317396 0.217030
v 0.589744 0.320868 -0.202027
v 0.589744 0.247338 -0.193844
v 0.589744 0.179766 -0.169956
v 0.589744 0.123624 -0.132300
v 0.589744 0.083462 -0.083925
v 0.589744 0.062534 -0.028751
v 0.589744 0.062534 0.028751
v 0.589744 0.083462 0.083925
v 0.589744 0.123624 0.132300
v 0.589744 0.179766 0.169956
v 0.589744 0.247338 0.193844
v 0.589744 0.320868 0.202027
v 0.641026 0.324655 -0.186001
v 0.641026 0.254484 -0.178467
v 0.641026 0.189998 -0.156474
v 0.641026 0.136422 -0.121805
v 0.641026 0.098095 -0.077268
v 0.641026 0.078122 -0.026471
v 0.641026 0.078122 0.026471
v 0.641026 0.098095 0.077268
v 0.641026 0.136422 0.121805
v 0.641026 0.189998 0.156474
v 0.641026 0.254484 0.178467
v 0.641026 0.324655 0.186001
v 0.692308 0.328757 -0.168880
v 0.692308 0.262404 -0.162039
v 0.692308 0.201426 -0.142071
v 0.692308 0.150763 -0.110593
v 0.692308 0.114521 -0.070155
v 0.692308 0.095635 -0.024034
v 0.692308 0.095635 0.024034
v 0.692308 0.114521 0.070155
v 0.692308 0.150763 0.110593
v 0.692308 0.201426 0.142071
v 0.692308 0.262404 0.162039
v 0.692308 0.328757 0.168880
v 0.743590 0.333176 -0.150535
v 0.743590 0.271191 -0.144437
v 0.743590 0.214227 -0.126638
v 0.743590 0.166900 -0.098580
v 0.743590 0.133044 -0.062535
v 0.743590 0.115401 -0.021423
v 0.743590 0.115401 0.021423
v 0.743590 0.133044 0.062535
v 0.743590 0.166900 0.098580
v 0.743590 0.214227 0.126638
v 0.743590 0.271191 0.144437
v 0.743590 0.333176 0.150535
v 0.794872 0.337909 -0.130739
v 0.794872 0.280994 -0.125443
v 0.794872 0.228690 -0.109985
v 0.794872 0.185234 -0.085616
v 0.794872 0.154147 -0.054311
v 0.794872 0.137947 -0.018606
v 0.794872 0.137947 0.018606
v 0.794872 0.154147 0.054311
v 0.794872 0.185234 0.085616
v 0.794872 0.228690 0.109985
v 0.794872 0.280994 0.125443
v 0.794872 0.337909 0.130739
v 0.846154 0.342959 -0.109070
v 0.846154 0.292075 -0.104652
v 0.846154 0.245314 -0.091756
v 0.846154 0.206464 -0.071426
v 0.846154 0.178671 -0.045309
v 0.846154 0.164188 -0.015522
v 0.846154 0.164188 0.015522
v 0.846154 0.178671 0.045309
v 0.846154 0.206464 0.071426
v 0.846154 0.245314 0.091756
v 0.846154 0.292075 0.104652
v 0.846154 0.342959 0.109070
v 0.897436 0.348323 -0.084658
v 0.897436 0.304964 -0.081229
v 0.897436 0.265118 -0.071219
v 0.897436 0.232012 -0.055439
v 0.897436 0.208329 -0.035168
v 0.897436 0.195988 -0.012048
v 0.897436 0.195988 0.012048
v 0.897436 0.208329 0.035168
v 0.897436 0.232012 0.055439
v 0.897436 0.265118 0.071219
v 0.897436 0.304964 0.081229
v 0.897436 0.348323 0.084658
v 0.948718 0.354004 -0.055210
v 0.948718 0.321101 -0.052974
v 0.948718 0.290864 -0.046446
v 0.948718 0.265742 -0.036155
v 0.948718 0.247770 -0.022935
v 0.948718 0.238405 -0.007857
v 0.948718 0.238405 0.007857
v 0.948718 0.247770 0.022935
v 0.948718 0.265742 0.036155
v 0.948718 0.290864 0.046446
v 0.948718 0.321101 0.052974
v 0.948718 0.354004 0.055210
v 1.000000 0.360000 -0.000000
v 1.000000 0.360000 -0.000000
v 1.000000 0.360000 -0.000000
v 1.000000 0.360000 -0.000000
v 1.000000 0.360000 -0.000000
v 1.000000 0.360000 -0.000000
v 1.000000 0.360000 0.000000
v 1.000000 0.360000 0.000000
v 1.000000 0.360000 0.000000
v 1.000000 0.360000 0.000000
v 1.000000 0.360000 0.000000
v 1.000000 0.360000 0.000000
v -1.000000 0.360000 -0.000000
v -0.948718 0.354004 -0.083031
v -0.897436 0.348323 -0.124468
v -0.846154 0.342959 -0.156788
v -0.794872 0.337909 -0.183768
v -0.743590 0.333176 -0.206916
v -0.692308 0.328757 -0.227019
v -0.641026 0.324655 -0.244545
v -0.589744 0.320868 -0.259801
v -0.538462 0.317396 -0.273001
v -0.487179 0.314241 -0.284303
v -0.435897 0.311400 -0.293828
v -0.384615 0.308876 -0.301671
v -0.333333 0.306667 -0.307912
v -0.282051 0.304773 -0.312619
v -0.230769 0.303195 -0.315852
v -0.179487 0.301933 -0.317665
v -0.128205 0.300986 -0.318105
v -0.076923 0.300355 -0.317220
v -0.025641 0.300039 -0.315052
v 0.025641 0.300039 -0.311643
v 0.076923 0.300355 -0.307034
v 0.128205 0.300986 -0.301261
v 0.179487 0.301933 -0.294363
v 0.230769 0.303195 -0.286373
v 0.282051 0.304773 -0.277324
v 0.333333 0.306667 -0.267244
v 0.384615 0.308876 -0.256160
v 0.435897 0.311400 -0.244090
v 0.487179 0.314241 -0.231046
v 0.538462 0.317396 -0.217030
v 0.589744 0.320868 -0.202027
v 0.641026 0.324655 -0.186001
v 0.692308 0.328757 -0.168880
v 0.743590 0.333176 -0.150535
v 0.794872 0.337909 -0.130739
v 0.846154 0.342959 -0.109070
v 0.897436 0.348323 -0.084658
v 0.948718 0.354004 -0.055210
v 1.000000 0.360000 -0.000000
v 1.000000 0.360000 0.000000
v 0.948718 0.354004 0.055210
v 0.897436 0.348323 0.084658
v 0.846154 0.342959 0.109070
v 0.794872 0.337909 0.130739
v 0.743590 0.333176 0.150535
v 0.692308 0.328757 0.168880
v 0.641026 0.324655 0.186001
v 0.589744 0.320868 0.202027
v 0.538462 0.317396 0.217030
v 0.487179 0.314241 0.231046
v 0.435897 0.311400 0.244090
v 0.384615 0.308876 0.256160
v 0.333333 0.306667 0.267244
v 0.282051 0.304773 0.277324
v 0.230769 0.303195 0.286373
v 0.179487 0.301933 0.294363
v 0.128205 0.300986 0.301261
v 0.076923 0.300355 0.307034
v 0.025641 0.300039 0.311643
v -0.025641 0.300039 0.315052
v -0.076923 0.300355 0.317220
v -0.128205 0.300986 0.318105
v -0.179487 0.301933 0.317665
v -0.230769 0.303195 0.315852
v -0.282051 0.304773 0.312619
v -0.333333 0.306667 0.307912
v -0.384615 0.308876 0.301671
v -0.435897 0.311400 0.293828
v -0.487179 0.314241 0.284303
v -0.538462 0.317396 0.273001
v -0.589744 0.320868 0.259801
v -0.641026 0.324655 0.244545
v -0.692308 0.328757 0.227019
v -0.743590 0.333176 0.206916
v -0.794872 0.337909 0.183768
v -0.846154 0.342959 0.156788
v -0.897436 0.348323 0.124468
v -0.948718 0.354004 0.083031
v -1.000000 0.360000 0.000000
v -0.000000 0.321026 -0.000000
f 1 13 14
f 2 14 15
f 3 15 16
f 4 16 17
f 5 17 18
f 6 18 19
f 7 19 20
f 8 20 21
f 9 21 22
f 10 22 23
f 11 23 24
f 13 25 26
f 13 26 14
f 14 26 27
f 14 27 15
f 15 27 28
f 15 28 16
f 16 28 29
f 16 29 17
f 17 29 30
f 17 30 18
f 18 30 31
f 18 31 19
f 19 31 32
f 19 32 20
f 20 32 33
f 20 33 21
f 21 33 34
f 21 34 22
f 22 34 35
f 22 35 23
f 23 35 36
f 23 36 24
f 25 37 38
f 25 38 26
f 26 38 39
f 26 39 27
f 27 39 40
f 27 40 28
f 28 40 41
f 28 41 29
f 29 41 42
f 29 42 30
f 30 42 43
f 30 43 31
f 31 43 44
f 31 44 32
f 32 44 45
f 32 45 33
f 33 45 46
f 33 46 34
f 34 46 47
f 34 47 35
f 35 47 48
f 35 48 36
f 37 49 50
f 37 50 38
f 38 50 51
f 38 51 39
f 39 51 52
f 39 52 40
f 40 52 53
f 40 53 41
f 41 53 54
f 41 54 42
f 42 54 55
f 42 55 43
f 43 55 56
f 43 56 44
f 44 56 57
f 44 57 45
f 45 57 58
f 45 58 46
f 46 58 59
f 46 59 47
f 47 59 60
f 47 60 48
f 49 61 62
f 49 62 50
f 50 62 63
f 50 63 51
f 51 63 64
f 51 64 52
f 52 64 65
f 52 65 53
f 53 65 66
f 53 66 54
f 54 66 67
f 54 67 55
f 55 67 68
f 55 68 56
f 56 68 69
f 56 69 57
f 57 69 70
f 57 70 58
f 58 70 71
f 58 71 59
f 59 71 72
f 59 72 60
f 61 73 74
f 61 74 62
f 62 74 75
f 62 75 63
f 63 75 76
f 63 76 64
f 64 76 77
f 64 77 65
f 65 77 78
f 65 78 66
f 66 78 79
f 66 79 67
f 67 79 80
f 67 80 68
f 68 80 81
f 68 81 69
f 69 81 82
f 69 82 70
f 70 82 83
f 70 83 71
f 71 83 84
f 71 84 72
f 73 85 86
f 73 86 74
f 74 86 87
f 74 87 75
f 75 87 88
f 75 88 76
f 76 88 89
f 76 89 77
f 77 89 90
f 77 90 78
f 78 90 91
f 78 91 79
f 79 91 92
f 79 92 80
f 80 92 93
f 80 93 81
f 81 93 94
f 81 94 82
f 82 94 95
f 82 95 83
f 83 95 96
f 83 96 84
f 85 97 98
f 85 98 86
f 86 98 99
f 86 99 87
f 87 99 100
f 87 100 88
f 88 100 101
f 88 101 89
f 89 101 102
f 89 102 90
f 90 102 103
f 90 103 91
f 91 103 104
f 91 104 92
f 92 104 105
f 92 105 93
f 93 105 106
f 93 106 94
f 94 106 107
f 94 107 95
f 95 107 108
f 95 108 96
f 97 109 110
f 97 110 98
f 98 110 111
f 98 111 99
f 99 111 112
f 99 112 100
f 100 112 113
f 100 113 101
f 101 113 114
f 101 114 102
f 102 114 115
f 102 115 103
f 103 115 116
f 103 116 104
f 104 116 117
f 104 117 105
f 105 117 118
f 105 118 106
f 106 118 119
f 106 119 107
f 107 119 120
f 107 120 108
f 109 121 122
f 109 122 110
f 110 122 123
f 110 123 111
f 111 123 124
f 111 124 112
f 112 124 125
f 112 125 113
f 113 125 126
f 113 126 114
f 114 126 127
f 114 127 115
f 115 127 128
f 115 128 116
f 116 128 129
f 116 129 117
f 117 129 130
f 117 130 118
f 118 130 131
f 118 131 119
f 119 131 132
f 119 132 120
f 121 133 134
f 121 134 122
f 122 134 135
f 122 135 123
f 123 135 136
f 123 136 124
f 124 136 137
f 124 137 125
f 125 137 138
f 125 138 126
f 126 138 139
f 126 139 127
f 127 139 140
f 127 140 128
f 128 140 141
f 128 141 129
f 129 141 142
f 129 142 130
f 130 142 143
f 130 143 131
f 131 143 144
f 131 144 132
f 133 145 146
f 133 146 134
f 134 146 147
f 134 147 135
f 135 147 148
f 135 148 136
f 136 148 149
f 136 149 137
f 137 149 150
f 137 150 138
f 138 150 151
f 138 151 139
f 139 151 152
f 139 152 140
f 140 152 153
f 140 153 141
f 141 153 154
f 141 154 142
f 142 154 155
f 142 155 143
f 143 155 156
f 143 156 144
f 145 157 158
f 145 158 146
f 146 158 159
f 146 159 147
f 147 159 160
f 147 160 148
f 148 160 161
f 148 161 149
f 149 161 162
f 149 162 150
f 150 162 163
f 150 163 151
f 151 163 164
f 151 164 152
f 152 164 165
f 152 165 153
f 153 165 166
f 153 166 154
f 154 166 167
f 154 167 155
f 155 167 168
f 155 168 156
f 157 169 170
f 157 170 158
f 158 170 171
f 158 171 159
f 159 171 172
f 159 172 160
f 160 172 173
f 160 173 161
f 161 173 174
f 161 174 162
f 162 174 175
f 162 175 163
f 163 175 176
f 163 176 164
f 164 176 177
f 164 177 165
f 165 177 178
f 165 178 166
f 166 178 179
f 166 179 167
f 167 179 180
f 167 180 168
f 169 181 182
f 169 182 170
f 170 182 183
f 170 183 171
f 171 183 184
f 171 184 172
f 172 184 185
f 172 185 173
f 173 185 186
f 173 186 174
f 174 186 187
f 174 187 175
f 175 187 188
f 175 188 176
f 176 188 189
f 176 189 177
f 177 189 190
f 177 190 178
f 178 190 191
f 178 191 179
f 179 191 192
f 179 192 180
f 181 193 194
f 181 194 182
f 182 194 195
f 182 195 183
f 183 195 196
f 183 196 184
f 184 196 197
f 184 197 185
f 185 197 198
f 185 198 186
f 186 198 199
f 186 199 187
f 187 199 200
f 187 200 188
f 188 200 201
f 188 201 189
f 189 201 202
f 189 202 190
f 190 202 203
f 190 203 191
f 191 203 204
f 191 204 192
f 193 205 206
f 193 206 194
f 194 206 207
f 194 207 195
f 195 207 208
f 195 208 196
f 196 208 209
f 196 209 197
f 197 209 210
f 197 210 198
f 198 210 211
f 198 211 199
f 199 211 212
f 199 212 200
f 200 212 213
f 200 213 201
f 201 213 214
f 201 214 202
f 202 214 215
f 202 215 203
f 203 215 216
f 203 216 204
f 205 217 218
f 205 218 206
f 206 218 219
f 206 219 207
f 207 219 220
f 207 220 208
f 208 220 221
f 208 221 209
f 209 221 222
f 209 222 210
f 210 222 223
f 210 223 211
f 211 223 224
f 211 224 212
f 212 224 225
f 212 225 213
f 213 225 226
f 213 226 214
f 214 226 227
f 214 227 215
f 215 227 228
f 215 228 216
f 217 229 230
f 217 230 218
f 218 230 231
f 218 231 219
f 219 231 232
f 219 232 220
f 220 232 233
f 220 233 221
f 221 233 234
f 221 234 222
f 222 234 235
f 222 235 223
f 223 235 236
f 223 236 224
f 224 236 237
f 224 237 225
f 225 237 238
f 225 238 226
f 226 238 239
f 226 239 227
f 227 239 240
f 227 240 228
f 229 241 242
f 229 242 230
f 230 242 243
f 230 243 231
f 231 243 244
f 231 244 232
f 232 244 245
f 232 245 233
f 233 245 246
f 233 246 234
f 234 246 247
f 234 247 235
f 235 247 248
f 235 248 236
f 236 248 249
f 236 249 237
f 237 249 250
f 237 250 238
f 238 250 251
f 238 251 239
f 239 251 252
f 239 252 240
f 241 253 254
f 241 254 242
f 242 254 255
f 242 255 243
f 243 255 256
f 243 256 244
f 244 256 257
f 244 257 245
f 245 257 258
f 245 258 246
f 246 258 259
f 246 259 247
f 247 259 260
f 247 260 248
f 248 260 261
f 248 261 249
f 249 261 262
f 249 262 250
f 250 262 263
f 250 263 251
f 251 263 264
f 251 264 252
f 253 265 266
f 253 266 254
f 254 266 267
f 254 267 255
f 255 267 268
f 255 268 256
f 256 268 269
f 256 269 257
f 257 269 270
f 257 270 258
f 258 270 271
f 258 271 259
f 259 271 272
f 259 272 260
f 260 272 273
f 260 273 261
f 261 273 274
f 261 274 262
f 262 274 275
f 262 275 263
f 263 275 276
f 263 276 264
f 265 277 278
f 265 278 266
f 266 278 279
f 266 279 267
f 267 279 280
f 267 280 268
f 268 280 281
f 268 281 269
f 269 281 282
f 269 282 270
f 270 282 283
f 270 283 271
f 271 283 284
f 271 284 272
f 272 284 285
f 272 285 273
f 273 285 286
f 273 286 274
f 274 286 287
f 274 287 275
f 275 287 288
f 275 288 276
f 277 289 290
f 277 290 278
f 278 290 291
f 278 291 279
f 279 291 292
f 279 292 280
f 280 292 293
f 280 293 281
f 281 293 294
f 281 294 282
f 282 294 295
f 282 295 283
f 283 295 296
f 283 296 284
f 284 296 297
f 284 297 285
f 285 297 298
f 285 298 286
f 286 298 299
f 286 299 287
f 287 299 300
f 287 300 288
f 289 301 302
f 289 302 290
f 290 302 303
f 290 303 291
f 291 303 304
f 291 304 292
f 292 304 305
f 292 305 293
f 293 305 306
f 293 306 294
f 294 306 307
f 294 307 295
f 295 307 308
f 295 308 296
f 296 308 309
f 296 309 297
f 297 309 310
f 297 310 298
f 298 310 311
f 298 311 299
f 299 311 312
f 299 312 300
f 301 313 314
f 301 314 302
f 302 314 315
f 302 315 303
f 303 315 316
f 303 316 304
f 304 316 317
f 304 317 305
f 305 317 318
f 305 318 306
f 306 318 319
f 306 319 307
f 307 319 320
f 307 320 308
f 308 320 321
f 308 321 309
f 309 321 322
f 309 322 310
f 310 322 323
f 310 323 311
f 311 323 324
f 311 324 312
f 313 325 326
f 313 326 314
f 314 326 327
f 314 327 315
f 315 327 328
f 315 328 316
f 316 328 329
f 316 329 317
f 317 329 330
f 317 330 318
f 318 330 331
f 318 331 319
f 319 331 332
f 319 332 320
f 320 332 333
f 320 333 321
f 321 333 334
f 321 334 322
f 322 334 335
f 322 335 323
f 323 335 336
f 323 336 324
f 325 337 338
f 325 338 326
f 326 338 339
f 326 339 327
f 327 339 340
f 327 340 328
f 328 340 341
f 328 341 329
f 329 341 342
f 329 342 330
f 330 342 343
f 330 343 331
f 331 343 344
f 331 344 332
f 332 344 345
f 332 345 333
f 333 345 346
f 333 346 334
f 334 346 347
f 334 347 335
f 335 347 348
f 335 348 336
f 337 349 350
f 337 350 338
f 338 350 351
f 338 351 339
f 339 351 352
f 339 352 340
f 340 352 353
f 340 353 341
f 341 353 354
f 341 354 342
f 342 354 355
f 342 355 343
f 343 355 356
f 343 356 344
f 344 356 357
f 344 357 345
f 345 357 358
f 345 358 346
f 346 358 359
f 346 359 347
f 347 359 360
f 347 360 348
f 349 361 362
f 349 362 350
f 350 362 363
f 350 363 351
f 351 363 364
f 351 364 352
f 352 364 365
f 352 365 353
f 353 365 366
f 353 366 354
f 354 366 367
f 354 367 355
f 355 367 368
f 355 368 356
f 356 368 369
f 356 369 357
f 357 369 370
f 357 370 358
f 358 370 371
f 358 371 359
f 359 371 372
f 359 372 360
f 361 373 374
f 361 374 362
f 362 374 375
f 362 375 363
f 363 375 376
f 363 376 364
f 364 376 377
f 364 377 365
f 365 377 378
f 365 378 366
f 366 378 379
f 366 379 367
f 367 379 380
f 367 380 368
f 368 380 381
f 368 381 369
f 369 381 382
f 369 382 370
f 370 382 383
f 370 383 371
f 371 383 384
f 371 384 372
f 373 385 386
f 373 386 374
f 374 386 387
f 374 387 375
f 375 387 388
f 375 388 376
f 376 388 389
f 376 389 377
f 377 389 390
f 377 390 378
f 378 390 391
f 378 391 379
f 379 391 392
f 379 392 380
f 380 392 393
f 380 393 381
f 381 393 394
f 381 394 382
f 382 394 395
f 382 395 383
f 383 395 396
f 383 396 384
f 385 397 398
f 385 398 386
f 386 398 399
f 386 399 387
f 387 399 400
f 387 400 388
f 388 400 401
f 388 401 389
f 389 401 402
f 389 402 390
f 390 402 403
f 390 403 391
f 391 403 404
f 391 404 392
f 392 404 405
f 392 405 393
f 393 405 406
f 393 406 394
f 394 406 407
f 394 407 395
f 395 407 408
f 395 408 396
f 397 409 410
f 397 410 398
f 398 410 411
f 398 411 399
f 399 411 412
f 399 412 400
f 400 412 413
f 400 413 401
f 401 413 414
f 401 414 402
f 402 414 415
f 402 415 403
f 403 415 416
f 403 416 404
f 404 416 417
f 404 417 405
f 405 417 418
f 405 418 406
f 406 418 419
f 406 419 407
f 407 419 420
f 407 420 408
f 409 421 422
f 409 422 410
f 410 422 423
f 410 423 411
f 411 423 424
f 411 424 412
f 412 424 425
f 412 425 413
f 413 425 426
f 413 426 414
f 414 426 427
f 414 427 415
f 415 427 428
f 415 428 416
f 416 428 429
f 416 429 417
f 417 429 430
f 417 430 418
f 418 430 431
f 418 431 419
f 419 431 432
f 419 432 420
f 421 433 434
f 421 434 422
f 422 434 435
f 422 435 423
f 423 435 436
f 423 436 424
f 424 436 437
f 424 437 425
f 425 437 438
f 425 438 426
f 426 438 439
f 426 439 427
f 427 439 440
f 427 440 428
f 428 440 441
f 428 441 429
f 429 441 442
f 429 442 430
f 430 442 443
f 430 443 431
f 431 443 444
f 431 444 432
f 433 445 446
f 433 446 434
f 434 446 447
f 434 447 435
f 435 447 448
f 435 448 436
f 436 448 449
f 436 449 437
f 437 449 450
f 437 450 438
f 438 450 451
f 438 451 439
f 439 451 452
f 439 452 440
f 440 452 453
f 440 453 441
f 441 453 454
f 441 454 442
f 442 454 455
f 442 455 443
f 443 455 456
f 443 456 444
f 445 457 458
f 445 458 446
f 446 458 459
f 446 459 447
f 447 459 460
f 447 460 448
f 448 460 461
f 448 461 449
f 449 461 462
f 449 462 450
f 450 462 463
f 450 463 451
f 451 463 464
f 451 464 452
f 452 464 465
f 452 465 453
f 453 465 466
f 453 466 454
f 454 466 467
f 454 467 455
f 455 467 468
f 455 468 456
f 457 469 470
f 457 470 458
f 458 470 471
f 458 471 459
f 459 471 472
f 459 472 460
f 460 472 473
f 460 473 461
f 461 473 474
f 461 474 462
f 462 474 475
f 462 475 463
f 463 475 476
f 463 476 464
f 464 476 477
f 464 477 465
f 465 477 478
f 465 478 466
f 466 478 479
f 466 479 467
f 467 479 480
f 467 480 468
f 561 481 482
f 561 482 483
f 561 483 484
f 561 484 485
f 561 485 486
f 561 486 487
f 561 487 488
f 561 488 489
f 561 489 490
f 561 490 491
f 561 491 492
f 561 492 493
f 561 493 494
f 561 494 495
f 561 495 496
f 561 496 497
f 561 497 498
f 561 498 499
f 561 499 500
f 561 500 501
f 561 501 502
f 561 502 503
f 561 503 504
f 561 504 505
f 561 505 506
f 561 506 507
f 561 507 508
f 561 508 509
f 561 509 510
f 561 510 511
f 561 511 512
f 561 512 513
f 561 513 514
f 561 514 515
f 561 515 516
f 561 516 517
f 561 517 518
f 561 518 519
f 561 519 520
f 561 520 521
f 561 521 522
f 561 522 523
f 561 523 524
f 561 524 525
f 561 525 526
f 561 526 527
f 561 527 528
f 561 528 529
f 561 529 530
f 561 530 531
f 561 531 532
f 561 532 533
f 561 533 534
f 561 534 535
f 561 535 536
f 561 536 537
f 561 537 538
f 561 538 539
f 561 539 540
f 561 540 541
f 561 541 542
f 561 542 543
f 561 543 544
f 561 544 545
f 561 545 546
f 561 546 547
f 561 547 548
f 561 548 549
f 561 549 550
f 561 550 551
f 561 551 552
f 561 552 553
f 561 553 554
f 561 554 555
f 561 555 556
f 561 556 557
f 561 557 558
f 561 558 559
f 561 559 560
