# Cone, base radius 1 at y = 0, tip at y = 1
# Generated procedurally for CSCI 4471 Assignment 1. 98 vertices, 96 triangles.
# Vertices shared between triangles are smooth; separate vertices give a sharp edge.
v 0.000000 0.000000 0.000000
v 1.000000 0.000000 0.000000
v 0.991445 0.000000 0.130526
v 0.965926 0.000000 0.258819
v 0.923880 0.000000 0.382683
v 0.866025 0.000000 0.500000
v 0.793353 0.000000 0.608761
v 0.707107 0.000000 0.707107
v 0.608761 0.000000 0.793353
v 0.500000 0.000000 0.866025
v 0.382683 0.000000 0.923880
v 0.258819 0.000000 0.965926
v 0.130526 0.000000 0.991445
v 0.000000 0.000000 1.000000
v -0.130526 0.000000 0.991445
v -0.258819 0.000000 0.965926
v -0.382683 0.000000 0.923880
v -0.500000 0.000000 0.866025
v -0.608761 0.000000 0.793353
v -0.707107 0.000000 0.707107
v -0.793353 0.000000 0.608761
v -0.866025 0.000000 0.500000
v -0.923880 0.000000 0.382683
v -0.965926 0.000000 0.258819
v -0.991445 0.000000 0.130526
v -1.000000 0.000000 0.000000
v -0.991445 0.000000 -0.130526
v -0.965926 0.000000 -0.258819
v -0.923880 0.000000 -0.382683
v -0.866025 0.000000 -0.500000
v -0.793353 0.000000 -0.608761
v -0.707107 0.000000 -0.707107
v -0.608761 0.000000 -0.793353
v -0.500000 0.000000 -0.866025
v -0.382683 0.000000 -0.923880
v -0.258819 0.000000 -0.965926
v -0.130526 0.000000 -0.991445
v -0.000000 0.000000 -1.000000
v 0.130526 0.000000 -0.991445
v 0.258819 0.000000 -0.965926
v 0.382683 0.000000 -0.923880
v 0.500000 0.000000 -0.866025
v 0.608761 0.000000 -0.793353
v 0.707107 0.000000 -0.707107
v 0.793353 0.000000 -0.608761
v 0.866025 0.000000 -0.500000
v 0.923880 0.000000 -0.382683
v 0.965926 0.000000 -0.258819
v 0.991445 0.000000 -0.130526
v 1.000000 0.000000 0.000000
v 0.991445 0.000000 0.130526
v 0.965926 0.000000 0.258819
v 0.923880 0.000000 0.382683
v 0.866025 0.000000 0.500000
v 0.793353 0.000000 0.608761
v 0.707107 0.000000 0.707107
v 0.608761 0.000000 0.793353
v 0.500000 0.000000 0.866025
v 0.382683 0.000000 0.923880
v 0.258819 0.000000 0.965926
v 0.130526 0.000000 0.991445
v 0.000000 0.000000 1.000000
v -0.130526 0.000000 0.991445
v -0.258819 0.000000 0.965926
v -0.382683 0.000000 0.923880
v -0.500000 0.000000 0.866025
v -0.608761 0.000000 0.793353
v -0.707107 0.000000 0.707107
v -0.793353 0.000000 0.608761
v -0.866025 0.000000 0.500000
v -0.923880 0.000000 0.382683
v -0.965926 0.000000 0.258819
v -0.991445 0.000000 0.130526
v -1.000000 0.000000 0.000000
v -0.991445 0.000000 -0.130526
v -0.965926 0.000000 -0.258819
v -0.923880 0.000000 -0.382683
v -0.866025 0.000000 -0.500000
v -0.793353 0.000000 -0.608761
v -0.707107 0.000000 -0.707107
v -0.608761 0.000000 -0.793353
v -0.500000 0.000000 -0.866025
v -0.382683 0.000000 -0.923880
v -0.258819 0.000000 -0.965926
v -0.130526 0.000000 -0.991445
v -0.000000 0.000000 -1.000000
v 0.130526 0.000000 -0.991445
v 0.258819 0.000000 -0.965926
v 0.382683 0.000000 -0.923880
v 0.500000 0.000000 -0.866025
v 0.608761 0.000000 -0.793353
v 0.707107 0.000000 -0.707107
v 0.793353 0.000000 -0.608761
v 0.866025 0.000000 -0.500000
v 0.923880 0.000000 -0.382683
v 0.965926 0.000000 -0.258819
v 0.991445 0.000000 -0.130526
v 0.000000 1.000000 0.000000
f 1 2 3
f 1 3 4
f 1 4 5
f 1 5 6
f 1 6 7
f 1 7 8
f 1 8 9
f 1 9 10
f 1 10 11
f 1 11 12
f 1 12 13
f 1 13 14
f 1 14 15
f 1 15 16
f 1 16 17
f 1 17 18
f 1 18 19
f 1 19 20
f 1 20 21
f 1 21 22
f 1 22 23
f 1 23 24
f 1 24 25
f 1 25 26
f 1 26 27
f 1 27 28
f 1 28 29
f 1 29 30
f 1 30 31
f 1 31 32
f 1 32 33
f 1 33 34
f 1 34 35
f 1 35 36
f 1 36 37
f 1 37 38
f 1 38 39
f 1 39 40
f 1 40 41
f 1 41 42
f 1 42 43
f 1 43 44
f 1 44 45
f 1 45 46
f 1 46 47
f 1 47 48
f 1 48 49
f 1 49 2
f 50 98 51
f 51 98 52
f 52 98 53
f 53 98 54
f 54 98 55
f 55 98 56
f 56 98 57
f 57 98 58
f 58 98 59
f 59 98 60
f 60 98 61
f 61 98 62
f 62 98 63
f 63 98 64
f 64 98 65
f 65 98 66
f 66 98 67
f 67 98 68
f 68 98 69
f 69 98 70
f 70 98 71
f 71 98 72
f 72 98 73
f 73 98 74
f 74 98 75
f 75 98 76
f 76 98 77
f 77 98 78
f 78 98 79
f 79 98 80
f 80 98 81
f 81 98 82
f 82 98 83
f 83 98 84
f 84 98 85
f 85 98 86
f 86 98 87
f 87 98 88
f 88 98 89
f 89 98 90
f 90 98 91
f 91 98 92
f 92 98 93
f 93 98 94
f 94 98 95
f 95 98 96
f 96 98 97
f 97 98 50
