# Cylinder, radius 1, from y = 0 to y = 1, capped (scale it to any size)
# Generated procedurally for CSCI 4471 Assignment 1. 194 vertices, 192 triangles.
# Vertices shared between triangles are smooth; separate vertices give a sharp edge.
v 0.000000 0.000000 0.000000
v 1.000000 0.000000 0.000000
v 0.991445 0.000000 0.130526
v 0.965926 0.000000 0.258819
v 0.923880 0.000000 0.382683
v 0.866025 0.000000 0.500000
v 0.793353 0.000000 0.608761
v 0.707107 0.000000 0.707107
v 0.608761 0.000000 0.793353
v 0.500000 0.000000 0.866025
v 0.382683 0.000000 0.923880
v 0.258819 0.000000 0.965926
v 0.130526 0.000000 0.991445
v 0.000000 0.000000 1.000000
v -0.130526 0.000000 0.991445
v -0.258819 0.000000 0.965926
v -0.382683 0.000000 0.923880
v -0.500000 0.000000 0.866025
v -0.608761 0.000000 0.793353
v -0.707107 0.000000 0.707107
v -0.793353 0.000000 0.608761
v -0.866025 0.000000 0.500000
v -0.923880 0.000000 0.382683
v -0.965926 0.000000 0.258819
v -0.991445 0.000000 0.130526
v -1.000000 0.000000 0.000000
v -0.991445 0.000000 -0.130526
v -0.965926 0.000000 -0.258819
v -0.923880 0.000000 -0.382683
v -0.866025 0.000000 -0.500000
v -0.793353 0.000000 -0.608761
v -0.707107 0.000000 -0.707107
v -0.608761 0.000000 -0.793353
v -0.500000 0.000000 -0.866025
v -0.382683 0.000000 -0.923880
v -0.258819 0.000000 -0.965926
v -0.130526 0.000000 -0.991445
v -0.000000 0.000000 -1.000000
v 0.130526 0.000000 -0.991445
v 0.258819 0.000000 -0.965926
v 0.382683 0.000000 -0.923880
v 0.500000 0.000000 -0.866025
v 0.608761 0.000000 -0.793353
v 0.707107 0.000000 -0.707107
v 0.793353 0.000000 -0.608761
v 0.866025 0.000000 -0.500000
v 0.923880 0.000000 -0.382683
v 0.965926 0.000000 -0.258819
v 0.991445 0.000000 -0.130526
v 1.000000 0.000000 0.000000
v 0.991445 0.000000 0.130526
v 0.965926 0.000000 0.258819
v 0.923880 0.000000 0.382683
v 0.866025 0.000000 0.500000
v 0.793353 0.000000 0.608761
v 0.707107 0.000000 0.707107
v 0.608761 0.000000 0.793353
v 0.500000 0.000000 0.866025
v 0.382683 0.000000 0.923880
v 0.258819 0.000000 0.965926
v 0.130526 0.000000 0.991445
v 0.000000 0.000000 1.000000
v -0.130526 0.000000 0.991445
v -0.258819 0.000000 0.965926
v -0.382683 0.000000 0.923880
v -0.500000 0.000000 0.866025
v -0.608761 0.000000 0.793353
v -0.707107 0.000000 0.707107
v -0.793353 0.000000 0.608761
v -0.866025 0.000000 0.500000
v -0.923880 0.000000 0.382683
v -0.965926 0.000000 0.258819
v -0.991445 0.000000 0.130526
v -1.000000 0.000000 0.000000
v -0.991445 0.000000 -0.130526
v -0.965926 0.000000 -0.258819
v -0.923880 0.000000 -0.382683
v -0.866025 0.000000 -0.500000
v -0.793353 0.000000 -0.608761
v -0.707107 0.000000 -0.707107
v -0.608761 0.000000 -0.793353
v -0.500000 0.000000 -0.866025
v -0.382683 0.000000 -0.923880
v -0.258819 0.000000 -0.965926
v -0.130526 0.000000 -0.991445
v -0.000000 0.000000 -1.000000
v 0.130526 0.000000 -0.991445
v 0.258819 0.000000 -0.965926
v 0.382683 0.000000 -0.923880
v 0.500000 0.000000 -0.866025
v 0.608761 0.000000 -0.793353
v 0.707107 0.000000 -0.707107
v 0.793353 0.000000 -0.608761
v 0.866025 0.000000 -0.500000
v 0.923880 0.000000 -0.382683
v 0.965926 0.000000 -0.258819
v 0.991445 0.000000 -0.130526
v 1.000000 1.000000 0.000000
v 0.991445 1.000000 0.130526
v 0.965926 1.000000 0.258819
v 0.923880 1.000000 0.382683
v 0.866025 1.000000 0.500000
v 0.793353 1.000000 0.608761
v 0.707107 1.000000 0.707107
v 0.608761 1.000000 0.793353
v 0.500000 1.000000 0.866025
v 0.382683 1.000000 0.923880
v 0.258819 1.000000 0.965926
v 0.130526 1.000000 0.991445
v 0.000000 1.000000 1.000000
v -0.130526 1.000000 0.991445
v -0.258819 1.000000 0.965926
v -0.382683 1.000000 0.923880
v -0.500000 1.000000 0.866025
v -0.608761 1.000000 0.793353
v -0.707107 1.000000 0.707107
v -0.793353 1.000000 0.608761
v -0.866025 1.000000 0.500000
v -0.923880 1.000000 0.382683
v -0.965926 1.000000 0.258819
v -0.991445 1.000000 0.130526
v -1.000000 1.000000 0.000000
v -0.991445 1.000000 -0.130526
v -0.965926 1.000000 -0.258819
v -0.923880 1.000000 -0.382683
v -0.866025 1.000000 -0.500000
v -0.793353 1.000000 -0.608761
v -0.707107 1.000000 -0.707107
v -0.608761 1.000000 -0.793353
v -0.500000 1.000000 -0.866025
v -0.382683 1.000000 -0.923880
v -0.258819 1.000000 -0.965926
v -0.130526 1.000000 -0.991445
v -0.000000 1.000000 -1.000000
v 0.130526 1.000000 -0.991445
v 0.258819 1.000000 -0.965926
v 0.382683 1.000000 -0.923880
v 0.500000 1.000000 -0.866025
v 0.608761 1.000000 -0.793353
v 0.707107 1.000000 -0.707107
v 0.793353 1.000000 -0.608761
v 0.866025 1.000000 -0.500000
v 0.923880 1.000000 -0.382683
v 0.965926 1.000000 -0.258819
v 0.991445 1.000000 -0.130526
v 1.000000 1.000000 0.000000
v 0.991445 1.000000 0.130526
v 0.965926 1.000000 0.258819
v 0.923880 1.000000 0.382683
v 0.866025 1.000000 0.500000
v 0.793353 1.000000 0.608761
v 0.707107 1.000000 0.707107
v 0.608761 1.000000 0.793353
v 0.500000 1.000000 0.866025
v 0.382683 1.000000 0.923880
v 0.258819 1.000000 0.965926
v 0.130526 1.000000 0.991445
v 0.000000 1.000000 1.000000
v -0.130526 1.000000 0.991445
v -0.258819 1.000000 0.965926
v -0.382683 1.000000 0.923880
v -0.500000 1.000000 0.866025
v -0.608761 1.000000 0.793353
v -0.707107 1.000000 0.707107
v -0.793353 1.000000 0.608761
v -0.866025 1.000000 0.500000
v -0.923880 1.000000 0.382683
v -0.965926 1.000000 0.258819
v -0.991445 1.000000 0.130526
v -1.000000 1.000000 0.000000
v -0.991445 1.000000 -0.130526
v -0.965926 1.000000 -0.258819
v -0.923880 1.000000 -0.382683
v -0.866025 1.000000 -0.500000
v -0.793353 1.000000 -0.608761
v -0.707107 1.000000 -0.707107
v -0.608761 1.000000 -0.793353
v -0.500000 1.000000 -0.866025
v -0.382683 1.000000 -0.923880
v -0.258819 1.000000 -0.965926
v -0.130526 1.000000 -0.991445
v -0.000000 1.000000 -1.000000
v 0.130526 1.000000 -0.991445
v 0.258819 1.000000 -0.965926
v 0.382683 1.000000 -0.923880
v 0.500000 1.000000 -0.866025
v 0.608761 1.000000 -0.793353
v 0.707107 1.000000 -0.707107
v 0.793353 1.000000 -0.608761
v 0.866025 1.000000 -0.500000
v 0.923880 1.000000 -0.382683
v 0.965926 1.000000 -0.258819
v 0.991445 1.000000 -0.130526
v 0.000000 1.000000 0.000000
f 1 2 3
f 1 3 4
f 1 4 5
f 1 5 6
f 1 6 7
f 1 7 8
f 1 8 9
f 1 9 10
f 1 10 11
f 1 11 12
f 1 12 13
f 1 13 14
f 1 14 15
f 1 15 16
f 1 16 17
f 1 17 18
f 1 18 19
f 1 19 20
f 1 20 21
f 1 21 22
f 1 22 23
f 1 23 24
f 1 24 25
f 1 25 26
f 1 26 27
f 1 27 28
f 1 28 29
f 1 29 30
f 1 30 31
f 1 31 32
f 1 32 33
f 1 33 34
f 1 34 35
f 1 35 36
f 1 36 37
f 1 37 38
f 1 38 39
f 1 39 40
f 1 40 41
f 1 41 42
f 1 42 43
f 1 43 44
f 1 44 45
f 1 45 46
f 1 46 47
f 1 47 48
f 1 48 49
f 1 49 2
f 50 99 51
f 50 98 99
f 51 100 52
f 51 99 100
f 52 101 53
f 52 100 101
f 53 102 54
f 53 101 102
f 54 103 55
f 54 102 103
f 55 104 56
f 55 103 104
f 56 105 57
f 56 104 105
f 57 106 58
f 57 105 106
f 58 107 59
f 58 106 107
f 59 108 60
f 59 107 108
f 60 109 61
f 60 108 109
f 61 110 62
f 61 109 110
f 62 111 63
f 62 110 111
f 63 112 64
f 63 111 112
f 64 113 65
f 64 112 113
f 65 114 66
f 65 113 114
f 66 115 67
f 66 114 115
f 67 116 68
f 67 115 116
f 68 117 69
f 68 116 117
f 69 118 70
f 69 117 118
f 70 119 71
f 70 118 119
f 71 120 72
f 71 119 120
f 72 121 73
f 72 120 121
f 73 122 74
f 73 121 122
f 74 123 75
f 74 122 123
f 75 124 76
f 75 123 124
f 76 125 77
f 76 124 125
f 77 126 78
f 77 125 126
f 78 127 79
f 78 126 127
f 79 128 80
f 79 127 128
f 80 129 81
f 80 128 129
f 81 130 82
f 81 129 130
f 82 131 83
f 82 130 131
f 83 132 84
f 83 131 132
f 84 133 85
f 84 132 133
f 85 134 86
f 85 133 134
f 86 135 87
f 86 134 135
f 87 136 88
f 87 135 136
f 88 137 89
f 88 136 137
f 89 138 90
f 89 137 138
f 90 139 91
f 90 138 139
f 91 140 92
f 91 139 140
f 92 141 93
f 92 140 141
f 93 142 94
f 93 141 142
f 94 143 95
f 94 142 143
f 95 144 96
f 95 143 144
f 96 145 97
f 96 144 145
f 97 98 50
f 97 145 98
f 146 194 147
f 147 194 148
f 148 194 149
f 149 194 150
f 150 194 151
f 151 194 152
f 152 194 153
f 153 194 154
f 154 194 155
f 155 194 156
f 156 194 157
f 157 194 158
f 158 194 159
f 159 194 160
f 160 194 161
f 161 194 162
f 162 194 163
f 163 194 164
f 164 194 165
f 165 194 166
f 166 194 167
f 167 194 168
f 168 194 169
f 169 194 170
f 170 194 171
f 171 194 172
f 172 194 173
f 173 194 174
f 174 194 175
f 175 194 176
f 176 194 177
f 177 194 178
f 178 194 179
f 179 194 180
f 180 194 181
f 181 194 182
f 182 194 183
f 183 194 184
f 184 194 185
f 185 194 186
f 186 194 187
f 187 194 188
f 188 194 189
f 189 194 190
f 190 194 191
f 191 194 192
f 192 194 193
f 193 194 146
