# Triangular glass prism, side 0.4, length 0.5 along z, resting on y = 0
# Generated procedurally for CSCI 4471 Assignment 1. 18 vertices, 8 triangles.
# Vertices shared between triangles are smooth; separate vertices give a sharp edge.
v -0.200000 0.000000 -0.250000
v 0.200000 0.000000 -0.250000
v 0.200000 0.000000 0.250000
v -0.200000 0.000000 0.250000
v 0.200000 0.000000 -0.250000
v 0.000000 0.346410 -0.250000
v 0.000000 0.346410 0.250000
v 0.200000 0.000000 0.250000
v 0.000000 0.346410 -0.250000
v -0.200000 0.000000 -0.250000
v -0.200000 0.000000 0.250000
v 0.000000 0.346410 0.250000
v -0.200000 0.000000 -0.250000
v 0.200000 0.000000 -0.250000
v 0.000000 0.346410 -0.250000
v -0.200000 0.000000 0.250000
v 0.200000 0.000000 0.250000
v 0.000000 0.346410 0.250000
f 1 2 3
f 1 3 4
f 5 6 7
f 5 7 8
f 9 10 11
f 9 11 12
f 13 14 15
f 16 17 18
